<svg width="16" height="16" viewBox="0 0 16 16" fill="none" xmlns="http://www.w3.org/2000/svg">
<g clip-path="url(#clip0_4045_16088)">
<g clip-path="url(#clip1_4045_16088)">
<path d="M0 7.00028C0 7.55341 0.446875 8.00028 1 8.00028C1.55313 8.00028 2 7.55341 2 7.00028C2 5.34403 3.34375 4.00028 5 4.00028H10V5.00028C10 5.40341 10.2437 5.76903 10.6187 5.92528C10.9937 6.08153 11.4219 5.99403 11.7094 5.70966L13.7094 3.70966C14.1 3.31903 14.1 2.68466 13.7094 2.29403L11.7094 0.294032C11.4219 0.0065321 10.9937 -0.0778429 10.6187 0.0784071C10.2437 0.234657 10 0.597157 10 1.00028V2.00028H5C2.2375 2.00028 0 4.23778 0 7.00028ZM16 9.00028C16 8.44716 15.5531 8.00028 15 8.00028C14.4469 8.00028 14 8.44716 14 9.00028C14 10.6565 12.6562 12.0003 11 12.0003H6V11.0003C6 10.5972 5.75625 10.2315 5.38125 10.0753C5.00625 9.91903 4.57812 10.0065 4.29063 10.2909L2.29063 12.2909C1.9 12.6815 1.9 13.3159 2.29063 13.7065L4.29063 15.7065C4.57812 15.994 5.00625 16.0784 5.38125 15.9222C5.75625 15.7659 6 15.4034 6 14.9972V14.0003H11C13.7625 14.0003 16 11.7628 16 9.00028Z" fill="#141417"/>
</g>
</g>
<defs>
<clipPath id="clip0_4045_16088">
<rect width="16" height="16" fill="white"/>
</clipPath>
<clipPath id="clip1_4045_16088">
<path d="M0 0H16V16H0V0Z" fill="white"/>
</clipPath>
</defs>
</svg>
